<svg width="14" height="14" viewBox="0 0 14 14" fill="none" xmlns="http://www.w3.org/2000/svg">
<g id="akar-icons:location">
<g id="Group">
<path id="Vector" d="M6.99805 7.58301C7.96455 7.58301 8.74805 6.79951 8.74805 5.83301C8.74805 4.86651 7.96455 4.08301 6.99805 4.08301C6.03155 4.08301 5.24805 4.86651 5.24805 5.83301C5.24805 6.79951 6.03155 7.58301 6.99805 7.58301Z" stroke="#D9DCE1" stroke-width="1.16667" stroke-linecap="round" stroke-linejoin="round"/>
<path id="Vector_2" d="M6.9987 1.16602C5.76102 1.16602 4.57404 1.65768 3.69887 2.53285C2.8237 3.40802 2.33203 4.59501 2.33203 5.83268C2.33203 6.93635 2.56653 7.65852 3.20703 8.45768L6.9987 12.8327L10.7904 8.45768C11.4309 7.65852 11.6654 6.93635 11.6654 5.83268C11.6654 4.59501 11.1737 3.40802 10.2985 2.53285C9.42336 1.65768 8.23638 1.16602 6.9987 1.16602Z" stroke="#D9DCE1" stroke-width="1.16667" stroke-linecap="round" stroke-linejoin="round"/>
</g>
</g>
</svg>
