<svg width="24" height="25" viewBox="0 0 24 25" fill="none" xmlns="http://www.w3.org/2000/svg">
<g id="bicycle">
<path id="Vector" d="M5.99951 20.5079C8.20865 20.5079 9.99951 18.7162 9.99951 16.506C9.99951 14.2957 8.20865 12.504 5.99951 12.504C3.79037 12.504 1.99951 14.2957 1.99951 16.506C1.99951 18.7162 3.79037 20.5079 5.99951 20.5079Z" stroke="#4C5465" stroke-width="1.25" stroke-linecap="round" stroke-linejoin="round"/>
<path id="Vector_2" d="M17.9995 20.5079C20.2086 20.5079 21.9995 18.7162 21.9995 16.506C21.9995 14.2957 20.2086 12.504 17.9995 12.504C15.7904 12.504 13.9995 14.2957 13.9995 16.506C13.9995 18.7162 15.7904 20.5079 17.9995 20.5079Z" stroke="#4C5465" stroke-width="1.25" stroke-linecap="round" stroke-linejoin="round"/>
<path id="Vector_3" d="M6.49951 16.5001L10.9995 16.506L15.9995 8.50208" stroke="#4C5465" stroke-width="1.25" stroke-linecap="round" stroke-linejoin="round"/>
<path id="Vector_4" d="M12.5005 14.0047L7.00049 7.50158M7.00049 7.50158L5.50049 7.50012M7.00049 7.50158H9.50049" stroke="#4C5465" stroke-width="1.25" stroke-linecap="round" stroke-linejoin="round"/>
<path id="Vector_5" d="M18 16L15 4.5C17 4.5 19 5 20 6.50003" stroke="#4C5465" stroke-width="1.25" stroke-linecap="round" stroke-linejoin="round"/>
</g>
</svg>
