<svg width="10" height="10" viewBox="0 0 10 10" fill="none" xmlns="http://www.w3.org/2000/svg">
<g id="Group">
<g id="Group_2">
<path id="Union" fill-rule="evenodd" clip-rule="evenodd" d="M9.47321 0H3.15632C3.0167 0 2.8828 0.0554637 2.78407 0.15419C2.68535 0.252916 2.62988 0.386818 2.62988 0.526437C2.62988 0.666057 2.68535 0.799959 2.78407 0.898685C2.8828 0.997411 3.0167 1.05287 3.15632 1.05287H8.20235L0.167553 9.0883C0.115831 9.1365 0.0743466 9.19462 0.0455737 9.25919C0.0168007 9.32377 0.00132908 9.39348 8.19276e-05 9.46416C-0.00116523 9.53485 0.0118377 9.60506 0.0383147 9.67061C0.0647917 9.73616 0.1042 9.79571 0.15419 9.8457C0.204179 9.89569 0.263726 9.9351 0.329277 9.96158C0.394827 9.98805 0.465039 10.0011 0.535724 9.99981C0.606409 9.99856 0.676119 9.98309 0.740695 9.95432C0.805271 9.92554 0.86339 9.88406 0.911585 9.83234L8.94713 1.79679V6.84369C8.94713 6.98331 9.00259 7.11721 9.10132 7.21593C9.20005 7.31466 9.33395 7.37012 9.47357 7.37012C9.61319 7.37012 9.74709 7.31466 9.84582 7.21593C9.94454 7.11721 10 6.98331 10 6.84369V0.526437C10 0.386818 9.94454 0.252916 9.84582 0.15419C9.74709 0.0554637 9.61319 0 9.47357 0H9.47321Z" fill="#7D8696"/>
</g>
</g>
</svg>
