<svg width="36" height="34" viewBox="0 0 36 34" fill="none" xmlns="http://www.w3.org/2000/svg">
<g id="Group 78">
<path id="Union" d="M8.36982 23.0973C4.02344 23.0973 0.5 19.5738 0.5 15.2274C0.5 10.8811 4.02344 7.35762 8.36982 7.35762C9.31225 7.35762 10.216 7.52327 11.0535 7.82706C12.7059 3.78526 16.6772 0.9375 21.3136 0.9375C27.4329 0.9375 32.3935 5.89813 32.3935 12.0174C32.3935 12.2869 32.3839 12.5543 32.3649 12.819C34.2154 13.6711 35.5 15.5418 35.5 17.7126C35.5 20.6865 33.0892 23.0973 30.1154 23.0973H8.36982Z" fill="url(#paint0_linear_45_175)"/>
<g id="Vector">
<path d="M27.0482 27.4092L25.9734 25.1683L24.8985 27.4092C24.7919 27.596 24.7308 27.8131 24.7308 28.0447C24.7308 28.7436 25.2871 29.3103 25.9734 29.3103C26.6597 29.3103 27.216 28.7436 27.216 28.0447C27.216 27.813 27.1549 27.5959 27.0482 27.4092Z" fill="url(#paint1_linear_45_175)"/>
<path d="M23.3205 31.9655L22.2456 29.7245L21.1708 31.9653C21.0641 32.1521 21.003 32.3692 21.003 32.6009C21.003 33.2999 21.5593 33.8665 22.2456 33.8665C22.9318 33.8665 23.4882 33.2999 23.4882 32.6009C23.4882 32.3693 23.4271 32.1522 23.3205 31.9655Z" fill="url(#paint2_linear_45_175)"/>
<path d="M19.5926 27.4092L18.5178 25.1683L17.4429 27.4092C17.3363 27.5959 17.2752 27.813 17.2752 28.0447C17.2752 28.7436 17.8315 29.3103 18.5178 29.3103C19.204 29.3103 19.7604 28.7436 19.7604 28.0447C19.7604 27.8131 19.6993 27.596 19.5926 27.4092Z" fill="url(#paint3_linear_45_175)"/>
<path d="M16.0719 31.9653L14.997 29.7245L13.9222 31.9655C13.8155 32.1522 13.7544 32.3693 13.7544 32.6009C13.7544 33.2999 14.3108 33.8665 14.9971 33.8665C15.6833 33.8665 16.2397 33.2999 16.2397 32.6009C16.2397 32.3692 16.1786 32.1521 16.0719 31.9653Z" fill="url(#paint4_linear_45_175)"/>
<path d="M12.3441 27.4093L11.2692 25.1683L10.1944 27.4091C10.0877 27.5959 10.0266 27.813 10.0266 28.0447C10.0266 28.7436 10.583 29.3103 11.2692 29.3103C11.9555 29.3103 12.5118 28.7436 12.5118 28.0447C12.5118 27.8131 12.4508 27.596 12.3441 27.4093Z" fill="url(#paint5_linear_45_175)"/>
<path d="M8.61627 31.9654L7.54143 29.7245L6.46659 31.9654C6.35992 32.1522 6.29883 32.3693 6.29883 32.6009C6.29883 33.2999 6.85516 33.8665 7.54143 33.8665C8.2277 33.8665 8.78404 33.2999 8.78404 32.6009C8.78404 32.3693 8.72294 32.1522 8.61627 31.9654Z" fill="url(#paint6_linear_45_175)"/>
</g>
</g>
<defs>
<linearGradient id="paint0_linear_45_175" x1="27.5" y1="37.9375" x2="12" y2="3.9375" gradientUnits="userSpaceOnUse">
<stop stop-color="#979797"/>
<stop offset="1" stop-color="#E2E2E2"/>
</linearGradient>
<linearGradient id="paint1_linear_45_175" x1="17" y1="23.5003" x2="16.7574" y2="32.5003" gradientUnits="userSpaceOnUse">
<stop stop-color="#26C0FF"/>
<stop offset="1" stop-color="#A0E4FF"/>
</linearGradient>
<linearGradient id="paint2_linear_45_175" x1="17" y1="23.5003" x2="16.7574" y2="32.5003" gradientUnits="userSpaceOnUse">
<stop stop-color="#26C0FF"/>
<stop offset="1" stop-color="#A0E4FF"/>
</linearGradient>
<linearGradient id="paint3_linear_45_175" x1="17" y1="23.5003" x2="16.7574" y2="32.5003" gradientUnits="userSpaceOnUse">
<stop stop-color="#26C0FF"/>
<stop offset="1" stop-color="#A0E4FF"/>
</linearGradient>
<linearGradient id="paint4_linear_45_175" x1="17" y1="23.5003" x2="16.7574" y2="32.5003" gradientUnits="userSpaceOnUse">
<stop stop-color="#26C0FF"/>
<stop offset="1" stop-color="#A0E4FF"/>
</linearGradient>
<linearGradient id="paint5_linear_45_175" x1="17" y1="23.5003" x2="16.7574" y2="32.5003" gradientUnits="userSpaceOnUse">
<stop stop-color="#26C0FF"/>
<stop offset="1" stop-color="#A0E4FF"/>
</linearGradient>
<linearGradient id="paint6_linear_45_175" x1="17" y1="23.5003" x2="16.7574" y2="32.5003" gradientUnits="userSpaceOnUse">
<stop stop-color="#26C0FF"/>
<stop offset="1" stop-color="#A0E4FF"/>
</linearGradient>
</defs>
</svg>
