<svg width="23" height="23" viewBox="0 0 23 23" fill="none" xmlns="http://www.w3.org/2000/svg">
<g id="Job">
<path id="Vector" d="M10.5338 19.9877H9.20155C5.79226 19.9877 4.08762 19.9877 3.02849 18.9085C1.96936 17.8292 1.96936 16.0921 1.96936 12.618C1.96936 9.14397 1.96936 7.40693 3.02849 6.32767C4.08762 5.24841 5.79226 5.24841 9.20155 5.24841H12.8176C16.2269 5.24841 17.9316 5.24841 18.9907 6.32767C19.8056 7.15804 19.9935 8.3778 20.0368 10.4785" stroke="#4C5465" stroke-width="1.18865" stroke-linecap="round"/>
<path id="Vector_2" d="M16.3387 12.6228C16.5142 12.461 16.602 12.3802 16.7086 12.3802C16.8152 12.3802 16.9029 12.461 17.0785 12.6228L17.7562 13.2472C17.8381 13.3226 17.879 13.3603 17.9298 13.379C17.9807 13.3977 18.0363 13.3955 18.1476 13.3911L19.0632 13.3552C19.299 13.3459 19.4169 13.3413 19.4977 13.4092C19.5785 13.4771 19.5942 13.5941 19.6257 13.8279L19.7519 14.7648C19.7664 14.8732 19.7738 14.9273 19.8001 14.9735C19.8265 15.0197 19.8694 15.0534 19.9553 15.1211L20.6927 15.7016C20.8752 15.8453 20.9665 15.9171 20.9846 16.0198C21.0026 16.1225 20.9414 16.2211 20.8189 16.4185L20.3187 17.2245C20.2615 17.3167 20.233 17.3629 20.2238 17.415C20.2147 17.467 20.226 17.5201 20.2486 17.6263L20.4471 18.5566C20.4958 18.7852 20.5202 18.8995 20.4678 18.9904C20.4155 19.0811 20.3044 19.1173 20.0821 19.1897L19.2019 19.4764C19.097 19.5105 19.0445 19.5276 19.0035 19.5623C18.9625 19.5971 18.9371 19.6461 18.8864 19.7441L18.4564 20.5728C18.3467 20.784 18.2919 20.8895 18.1921 20.9259C18.0922 20.9624 17.9823 20.9168 17.7626 20.8256L16.9178 20.4752C16.8145 20.4324 16.763 20.411 16.7086 20.411C16.6542 20.411 16.6026 20.4324 16.4994 20.4752L15.6546 20.8256C15.4348 20.9168 15.3249 20.9624 15.225 20.9259C15.1252 20.8895 15.0704 20.784 14.9608 20.5728L14.5308 19.7441C14.48 19.6461 14.4546 19.5971 14.4136 19.5623C14.3726 19.5276 14.3201 19.5105 14.2152 19.4764L13.335 19.1897C13.1128 19.1173 13.0016 19.0811 12.9493 18.9904C12.8969 18.8995 12.9213 18.7852 12.97 18.5566L13.1685 17.6263C13.1911 17.5201 13.2024 17.467 13.1933 17.415C13.1842 17.3629 13.1556 17.3167 13.0984 17.2245L12.5982 16.4185C12.4757 16.2211 12.4145 16.1225 12.4326 16.0198C12.4506 15.9171 12.5419 15.8453 12.7244 15.7016L13.4618 15.1211C13.5477 15.0534 13.5906 15.0197 13.617 14.9735C13.6434 14.9273 13.6507 14.8732 13.6652 14.7648L13.7914 13.8279C13.8229 13.5941 13.8386 13.4771 13.9194 13.4092C14.0002 13.3413 14.1182 13.3459 14.3539 13.3552L15.2695 13.3911C15.3808 13.3955 15.4364 13.3977 15.4873 13.379C15.5382 13.3603 15.5791 13.3226 15.6609 13.2472L16.3387 12.6228Z" stroke="#4C5465" stroke-width="1.18865"/>
<path id="Vector_3" d="M15.282 5.24833L15.1875 4.95443C14.7168 3.48997 14.4814 2.75774 13.9211 2.33892C13.3608 1.9201 12.6165 1.9201 11.1279 1.9201H10.8777C9.38916 1.9201 8.64489 1.9201 8.08457 2.33892C7.52424 2.75774 7.28887 3.48997 6.81816 4.95443L6.72369 5.24833" stroke="#4C5465" stroke-width="1.18865"/>
</g>
</svg>
