<svg width="18" height="22" viewBox="0 0 18 22" fill="none" xmlns="http://www.w3.org/2000/svg">
<path id="Notification Bell" fill-rule="evenodd" clip-rule="evenodd" d="M9.75245 0.75C9.75245 0.335786 9.41667 0 9.00245 0C8.58824 0 8.25245 0.335786 8.25245 0.75V2.53861C4.65494 2.91235 1.84999 5.95361 1.84999 9.65V15.173C1.84999 15.2163 1.83872 15.2589 1.81729 15.2966L1.19829 16.3847C0.534601 17.5513 1.37717 19 2.71937 19H15.2806C16.6228 19 17.4654 17.5513 16.8017 16.3847L16.1827 15.2966C16.1613 15.2589 16.15 15.2163 16.15 15.173V9.65C16.15 5.9553 13.3476 2.91513 9.75245 2.53912V0.75ZM8.99999 4C5.87958 4 3.34999 6.52959 3.34999 9.65V15.173C3.34999 15.4764 3.27111 15.7746 3.12108 16.0383L2.50207 17.1264C2.40726 17.293 2.52763 17.5 2.71937 17.5H15.2806C15.4724 17.5 15.5927 17.293 15.4979 17.1264L14.8789 16.0383C14.7289 15.7746 14.65 15.4764 14.65 15.173V9.65C14.65 6.52959 12.1204 4 8.99999 4ZM5.25302 21.25C5.25302 20.8358 5.5888 20.5 6.00302 20.5H12.003C12.4172 20.5 12.753 20.8358 12.753 21.25C12.753 21.6642 12.4172 22 12.003 22H6.00302C5.5888 22 5.25302 21.6642 5.25302 21.25Z" fill="#656B76"/>
</svg>
