<svg width="23" height="23" viewBox="0 0 23 23" fill="none" xmlns="http://www.w3.org/2000/svg">
<g id="user-group">
<path id="Vector" d="M19.7727 17.1349C20.4853 17.1349 21.052 16.6865 21.5609 16.0595C22.6026 14.776 20.8923 13.7504 20.2399 13.2481C19.5768 12.7375 18.8365 12.4482 18.0858 12.3803M17.1349 10.4784C18.4478 10.4784 19.5122 9.41409 19.5122 8.10115C19.5122 6.7882 18.4478 5.72385 17.1349 5.72385" stroke="#4C5465" stroke-width="1.18865" stroke-linecap="round"/>
<path id="Vector_2" d="M3.08598 17.1349C2.37345 17.1349 1.80672 16.6865 1.29785 16.0595C0.256165 14.776 1.96647 13.7504 2.61878 13.2481C3.28188 12.7375 4.02228 12.4482 4.77295 12.3803M5.24841 10.4784C3.93547 10.4784 2.87111 9.41409 2.87111 8.10115C2.87111 6.7882 3.93547 5.72385 5.24841 5.72385" stroke="#4C5465" stroke-width="1.18865" stroke-linecap="round"/>
<path id="Vector_3" d="M7.70534 14.3879C6.73371 14.9887 4.18616 16.2154 5.73779 17.7505C6.49575 18.5004 7.33992 19.0367 8.40125 19.0367H14.4575C15.5188 19.0367 16.3629 18.5004 17.1209 17.7505C18.6725 16.2154 16.125 14.9887 15.1533 14.3879C12.8748 12.979 9.98377 12.979 7.70534 14.3879Z" stroke="#4C5465" stroke-width="1.18865" stroke-linecap="round" stroke-linejoin="round"/>
<path id="Vector_4" d="M14.7576 7.15021C14.7576 8.98834 13.2675 10.4784 11.4293 10.4784C9.59122 10.4784 8.1011 8.98834 8.1011 7.15021C8.1011 5.31208 9.59122 3.82199 11.4293 3.82199C13.2675 3.82199 14.7576 5.31208 14.7576 7.15021Z" stroke="#4C5465" stroke-width="1.18865"/>
</g>
</svg>
