<svg width="16" height="16" viewBox="0 0 16 16" fill="none" xmlns="http://www.w3.org/2000/svg">
<g id="rain" clip-path="url(#clip0_1_627)">
<path id="Vector" d="M10.6662 8.66684V14.0002" stroke="#F3F5F6" stroke-width="1.16667" stroke-linecap="round" stroke-linejoin="round"/>
<path id="Vector_2" d="M5.33203 8.66699V14.0003" stroke="#F3F5F6" stroke-width="1.16667" stroke-linecap="round" stroke-linejoin="round"/>
<path id="Vector_3" d="M8 10V15.3333" stroke="#F3F5F6" stroke-width="1.16667" stroke-linecap="round" stroke-linejoin="round"/>
<path id="Vector_4" d="M13.3327 11.0535C14.0335 10.7465 14.6074 10.2078 14.9581 9.52783C15.3087 8.84782 15.4148 8.06787 15.2584 7.31892C15.1021 6.56997 14.6928 5.89761 14.0994 5.41469C13.506 4.93177 12.7645 4.6677 11.9994 4.6668H11.1594C10.948 3.84848 10.5453 3.0921 9.98424 2.46C9.42321 1.8279 8.72 1.33819 7.93255 1.03122C7.1451 0.724245 6.29598 0.608812 5.45516 0.69443C4.61434 0.780048 3.80591 1.06427 3.0965 1.52366C2.38709 1.98305 1.79701 2.60446 1.37491 3.33667C0.952801 4.06887 0.710753 4.89092 0.668712 5.73503C0.626672 6.57915 0.785843 7.42118 1.13311 8.1917C1.48037 8.96223 2.00578 9.6392 2.66604 10.1668" stroke="#F3F5F6" stroke-width="1.16667" stroke-linecap="round" stroke-linejoin="round"/>
</g>
<defs>
<clipPath id="clip0_1_627">
<rect width="16" height="16" fill="white"/>
</clipPath>
</defs>
</svg>
