<svg width="20" height="20" viewBox="0 0 20 20" fill="none" xmlns="http://www.w3.org/2000/svg">
<g id="reload">
<path id="Vector" d="M7.36107 0.83313L6.86282 1.76461C6.52591 2.39435 6.35749 2.70922 6.46882 2.84407C6.58024 2.97892 6.94707 2.87002 7.68074 2.6522C8.41424 2.43442 9.19299 2.31726 9.99999 2.31726C14.3722 2.31726 17.9167 5.75685 17.9167 9.99983C17.9167 11.3991 17.5311 12.7111 16.8575 13.8411M12.6389 19.1665L13.1372 18.235C13.4741 17.6052 13.6425 17.2903 13.5312 17.1555C13.4198 17.0207 13.0529 17.1296 12.3192 17.3474C11.5857 17.5652 10.807 17.6823 9.99999 17.6823C5.62774 17.6823 2.08332 14.2427 2.08332 9.99983C2.08332 8.6005 2.46883 7.28852 3.14241 6.15852" stroke="#14C18B" stroke-width="1.4881" stroke-linecap="round" stroke-linejoin="round"/>
</g>
</svg>
