<svg width="19" height="23" viewBox="0 0 19 23" fill="none" xmlns="http://www.w3.org/2000/svg">
<g id="Students">
<path id="Vector" d="M2.01843 7.6256C2.01843 8.90153 9.71604 12.3802 11.5144 12.3802C13.3127 12.3802 21.0104 8.90153 21.0104 7.6256C21.0104 6.34968 13.3127 2.871 11.5144 2.871C9.71604 2.871 2.01843 6.34968 2.01843 7.6256Z" stroke="#4C5465" stroke-width="1.08178" stroke-linecap="round" stroke-linejoin="round"/>
<path id="Vector_2" d="M5.81653 10.4784L6.04961 15.832C6.05427 15.9391 6.06586 16.0465 6.09693 16.1492C6.19294 16.4666 6.36991 16.755 6.63989 16.9488C8.75232 18.4647 14.2759 18.4647 16.3883 16.9488C16.6584 16.755 16.8353 16.4666 16.9313 16.1492C16.9623 16.0465 16.9739 15.9391 16.9787 15.832L17.2117 10.4784" stroke="#4C5465" stroke-width="1.08178" stroke-linecap="round" stroke-linejoin="round"/>
<path id="Vector_3" d="M19.5851 9.052V15.7084M19.5851 15.7084C18.832 17.0838 18.499 17.8206 18.1608 19.0367C18.0873 19.4693 18.1456 19.6874 18.4438 19.881C18.565 19.9596 18.7106 19.9876 18.8549 19.9876H20.3007C20.4545 19.9876 20.6096 19.9555 20.7361 19.8682C21.0133 19.6771 21.0846 19.4674 21.0095 19.0367C20.713 17.9075 20.3353 17.1356 19.5851 15.7084Z" stroke="#4C5465" stroke-width="1.08178" stroke-linecap="round" stroke-linejoin="round"/>
</g>
</svg>
