<svg width="40" height="41" viewBox="0 0 40 41" fill="none" xmlns="http://www.w3.org/2000/svg">
<g id="Sunny">
<g id="Group 114">
<path id="Ellipse 17 (Stroke)" fill-rule="evenodd" clip-rule="evenodd" d="M34.9859 21.2849C34.574 21.2637 34.2593 20.9124 34.2593 20.5C34.2593 20.0876 34.574 19.7363 34.9859 19.7151L36.5639 19.6337C37.0679 19.6077 37.5 19.9953 37.5 20.5C37.5 21.0047 37.0679 21.3923 36.5639 21.3663L34.9859 21.2849ZM32.3504 13.3683C32.557 13.7253 33.0055 13.873 33.3728 13.6855L34.7778 12.9682C35.2286 12.738 35.4089 12.1833 35.1554 11.7452C34.9019 11.307 34.3326 11.1893 33.9084 11.4654L32.5861 12.3258C32.2405 12.5507 32.1439 13.0114 32.3504 13.3683ZM27.1317 8.14955C27.4886 8.35609 27.9493 8.25952 28.1742 7.91389L29.0346 6.59164C29.3107 6.16738 29.193 5.59814 28.7548 5.34461C28.3167 5.09108 27.762 5.27136 27.5318 5.72219L26.8145 7.12722C26.627 7.49449 26.7747 7.94301 27.1317 8.14955ZM20 6.24074C20.4124 6.24074 20.7637 5.92604 20.7849 5.51415L20.8663 3.93606C20.8923 3.43207 20.5047 3 20 3C19.4953 3 19.1077 3.43207 19.1337 3.93606L19.2151 5.51415C19.2363 5.92604 19.5876 6.24074 20 6.24074ZM12.8683 8.14955C13.2253 7.94301 13.373 7.49449 13.1855 7.12722L12.4682 5.72219C12.238 5.27136 11.6833 5.09108 11.2452 5.34461C10.807 5.59815 10.6893 6.16738 10.9654 6.59164L11.8258 7.91389C12.0507 8.25952 12.5114 8.35609 12.8683 8.14955ZM7.64955 13.3683C7.85609 13.0114 7.75952 12.5507 7.41389 12.3258L6.09164 11.4654C5.66738 11.1893 5.09814 11.307 4.84461 11.7452C4.59108 12.1833 4.77136 12.738 5.22219 12.9682L6.62722 13.6855C6.99449 13.873 7.44301 13.7253 7.64955 13.3683ZM5.01415 19.7151C5.42604 19.7363 5.74074 20.0876 5.74074 20.5C5.74074 20.9124 5.42604 21.2637 5.01415 21.2849L3.43606 21.3663C2.93207 21.3923 2.5 21.0047 2.5 20.5C2.5 19.9953 2.93207 19.6077 3.43606 19.6337L5.01415 19.7151ZM7.64955 27.6317C7.44301 27.2747 6.99449 27.127 6.62722 27.3145L5.22219 28.0318C4.77136 28.262 4.59108 28.8167 4.84461 29.2548C5.09815 29.693 5.66738 29.8107 6.09165 29.5346L7.41389 28.6742C7.75952 28.4493 7.85609 27.9886 7.64955 27.6317ZM12.8683 32.8504C12.5114 32.6439 12.0507 32.7405 11.8258 33.0861L10.9654 34.4084C10.6893 34.8326 10.807 35.4019 11.2452 35.6554C11.6833 35.9089 12.238 35.7286 12.4682 35.2778L13.1855 33.8728C13.373 33.5055 13.2253 33.057 12.8683 32.8504ZM20 34.7593C19.5876 34.7593 19.2363 35.074 19.2151 35.4859L19.1337 37.0639C19.1077 37.5679 19.4953 38 20 38C20.5047 38 20.8923 37.5679 20.8663 37.0639L20.7849 35.4859C20.7637 35.074 20.4124 34.7593 20 34.7593ZM27.1317 32.8504C26.7747 33.057 26.627 33.5055 26.8145 33.8728L27.5318 35.2778C27.762 35.7286 28.3167 35.9089 28.7548 35.6554C29.193 35.4019 29.3107 34.8326 29.0346 34.4084L28.1742 33.0861C27.9493 32.7405 27.4886 32.6439 27.1317 32.8504ZM32.3504 27.6317C32.1439 27.9886 32.2405 28.4493 32.5861 28.6742L33.9084 29.5346C34.3326 29.8107 34.9019 29.693 35.1554 29.2548C35.4089 28.8167 35.2286 28.262 34.7778 28.0318L33.3728 27.3145C33.0055 27.127 32.557 27.2747 32.3504 27.6317Z" fill="#FFD400"/>
<path id="Ellipse 17" d="M31.9912 20.4995C31.9912 27.1218 26.6228 32.4903 20.0005 32.4903C13.3782 32.4903 8.00977 27.1218 8.00977 20.4995C8.00977 13.8772 13.3782 8.50879 20.0005 8.50879C26.6228 8.50879 31.9912 13.8772 31.9912 20.4995Z" fill="url(#paint0_radial_1_670)"/>
</g>
</g>
<defs>
<radialGradient id="paint0_radial_1_670" cx="0" cy="0" r="1" gradientUnits="userSpaceOnUse" gradientTransform="translate(14.501 14.5) rotate(57.7712) scale(27.1892)">
<stop offset="0.0647726" stop-color="#FFD500"/>
<stop offset="0.923333" stop-color="#FF7C01"/>
</radialGradient>
</defs>
</svg>
