<svg width="27" height="31" viewBox="0 0 27 31" fill="none" xmlns="http://www.w3.org/2000/svg">
<g id="train-01">
<path id="Vector" d="M4.39516 14.289V13.078C4.39516 8.51099 4.39516 6.2275 5.68247 4.80871C6.96979 3.38992 9.04168 3.38992 13.1855 3.38992C17.3292 3.38992 19.4012 3.38992 20.6885 4.80871C21.9758 6.2275 21.9758 8.51099 21.9758 13.078V14.289C21.9758 18.856 21.9758 21.1396 20.6885 22.5583C19.4012 23.9771 17.3292 23.9771 13.1855 23.9771C9.04168 23.9771 6.96979 23.9771 5.68247 22.5583C4.39516 21.1396 4.39516 18.856 4.39516 14.289Z" stroke="#4C5465" stroke-width="1.25" stroke-linejoin="round"/>
<path id="Vector_2" d="M4.39516 15.5C4.39516 15.5 8.49731 16.711 13.1855 16.711C17.8737 16.711 21.9758 15.5 21.9758 15.5" stroke="#4C5465" stroke-width="1.25" stroke-linejoin="round"/>
<path id="Vector_3" d="M7.69153 23.9771L5.49395 27.6101" stroke="#4C5465" stroke-width="1.25" stroke-linecap="round" stroke-linejoin="round"/>
<path id="Vector_4" d="M18.6794 23.9771L20.877 27.6101" stroke="#4C5465" stroke-width="1.25" stroke-linecap="round" stroke-linejoin="round"/>
<path id="Vector_5" d="M4.94456 20.3441H7.14214" stroke="#4C5465" stroke-width="1.25" stroke-linecap="round"/>
<path id="Vector_6" d="M19.2288 20.3441H21.4264" stroke="#4C5465" stroke-width="1.25" stroke-linecap="round"/>
<path id="Vector_7" d="M5.49395 7.02295H20.877" stroke="#4C5465" stroke-width="1.25" stroke-linecap="round"/>
</g>
</svg>
