<svg width="316" height="138" viewBox="0 0 316 138" fill="none" xmlns="http://www.w3.org/2000/svg">
<path d="M13 20.2244H-51V193H467V64.2246H420C419.2 64.2246 417.667 62.2246 417 61.2246C403 47.2246 394 48.2246 394.5 48.2246C388.9 48.2246 377.167 63.2246 372 70.7246L370.5 72.2246C360.1 82.6246 348.5 76.5579 344 72.2246L342.5 70.7246C333.7 61.9246 322.167 70.7246 317.5 76.2246C313.5 80.2246 306.167 81.5579 303 81.7246C295 81.7246 283.667 80.0579 279 79.2246C269.8 79.2246 264.833 87.2246 263.5 91.2246L257 105.725C246.2 125.725 238.5 110.058 236 99.7246L226.5 53.7246C219.7 28.9246 204.333 39.7246 197.5 48.2246C186.7 61.8246 179.333 51.8913 177 45.2246L165.5 8.22476C155.1 -9.77524 141.5 10.0581 136 22.2248C132.4 32.6248 118.5 31.2248 112 29.2248C97.6 26.4248 90.3333 29.0581 88.5 30.7248C86.1667 32.3914 81.5 35.8248 81.5 36.2248C70.7 44.2248 63.3333 37.8914 61 33.7248C57.1667 28.3913 49.5 17.6244 49.5 17.2244C45.1 10.0244 37 12.2244 33.5 14.2244C28.3 18.2244 17.6667 19.891 13 20.2244Z" fill="url(#paint0_linear_1_794)" stroke="#467FF9"/>
<defs>
<linearGradient id="paint0_linear_1_794" x1="208" y1="-12.5" x2="208" y2="116" gradientUnits="userSpaceOnUse">
<stop stop-color="#467FF9"/>
<stop offset="0.38" stop-color="#93B4FC"/>
<stop offset="1" stop-color="#E3ECFF"/>
</linearGradient>
</defs>
</svg>
