<svg width="16" height="16" viewBox="0 0 16 16" fill="none" xmlns="http://www.w3.org/2000/svg">
<g id="wind">
<path id="Vector" d="M6.39203 3.06031C6.5469 2.90452 6.73786 2.78941 6.94795 2.72521C7.15803 2.66101 7.38072 2.6497 7.59622 2.69231C7.81172 2.73491 8.01335 2.8301 8.1832 2.96941C8.35305 3.10872 8.48584 3.28784 8.56978 3.49084C8.65372 3.69384 8.6862 3.91444 8.66434 4.13302C8.64248 4.3516 8.56695 4.5614 8.44447 4.74375C8.32199 4.92611 8.15634 5.07538 7.96227 5.17829C7.7682 5.2812 7.5517 5.33457 7.33203 5.33365H1.33203M8.39203 12.9403C8.5469 13.0961 8.73786 13.2112 8.94795 13.2754C9.15803 13.3396 9.38072 13.3509 9.59622 13.3083C9.81172 13.2657 10.0134 13.1705 10.1832 13.0312C10.353 12.8919 10.4858 12.7128 10.5698 12.5098C10.6537 12.3068 10.6862 12.0862 10.6643 11.8676C10.6425 11.649 10.567 11.4392 10.4445 11.2569C10.322 11.0745 10.1563 10.9252 9.96227 10.8223C9.7682 10.7194 9.5517 10.6661 9.33203 10.667H1.33203M11.8187 5.15365C12.0126 4.96024 12.2512 4.81759 12.5133 4.73832C12.7755 4.65905 13.0531 4.64561 13.3217 4.69917C13.5903 4.75274 13.8415 4.87166 14.0532 5.04543C14.2649 5.21919 14.4305 5.44245 14.5353 5.69544C14.6402 5.94844 14.6811 6.22338 14.6545 6.49594C14.6278 6.76851 14.5344 7.03031 14.3824 7.25818C14.2305 7.48605 14.0248 7.67297 13.7834 7.80241C13.5421 7.93185 13.2726 7.99982 12.9987 8.00031H1.33203" stroke="#F3F5F6" stroke-width="1.16667" stroke-linecap="round" stroke-linejoin="round"/>
</g>
</svg>
